<?xml version="1.0" encoding="utf-8"?>
<!-- Generator: Adobe Illustrator 27.0.0, SVG Export Plug-In . SVG Version: 6.00 Build 0)  -->
<svg version="1.1" id="Layer_1" xmlns="http://www.w3.org/2000/svg" xmlns:xlink="http://www.w3.org/1999/xlink" x="0px" y="0px"
	 viewBox="0 0 411.3 51.2" style="enable-background:new 0 0 411.3 51.2;" xml:space="preserve">
<style type="text/css">
	.st0{fill:#0047BA;}
</style>
<g>
	<g>
		<path class="st0" d="M54.1,51.2c-3.4,0-6.3-1-8.5-3.1s-3.3-5.2-3.3-9.3V23.6c0-0.2,0.1-0.3,0.3-0.3h5.9c0.2,0,0.3,0.1,0.3,0.3v15
			c0,2.2,0.5,3.8,1.5,4.8s2.2,1.6,3.8,1.6c1.6,0,2.8-0.5,3.8-1.6c1-1.1,1.5-2.7,1.5-4.8v-15c0-0.2,0.1-0.3,0.3-0.3h5.9
			c0.2,0,0.3,0.1,0.3,0.3v15.2c0,4.1-1.1,7.2-3.3,9.3C60.3,50.2,57.5,51.2,54.1,51.2z"/>
		<path class="st0" d="M97.8,36.7l-20.5,3.9c-0.2,0-0.3,0.3-0.2,0.5c0.7,1.2,1.6,2.1,2.8,2.8c1.3,0.8,2.7,1.2,4.3,1.2
			c1.4,0,2.7-0.3,3.8-0.9c1.1-0.6,1.8-1.2,2.2-1.9l0.3-0.4c0.2-0.3,0.5-0.3,0.8-0.2L96,44c0.3,0.2,0.4,0.6,0.3,0.9
			c0,0-0.1,0.1-0.1,0.1c-0.2,0.3-0.6,0.9-1.4,1.7s-1.5,1.5-2.4,2.1s-2,1.2-3.5,1.7c-1.5,0.5-3.1,0.8-4.8,0.8
			c-4.3,0-7.8-1.4-10.5-4.1c-2.7-2.7-4.1-6.1-4.1-10.2c0-4,1.4-7.4,4.1-10.1s6.1-4.1,10.2-4.1s7.4,1.3,10.1,4c2.6,2.6,4,5.9,4.2,9.7
			C98.1,36.5,98,36.7,97.8,36.7z M83.8,28.8c-2.1,0-3.8,0.6-5.2,1.9c-1.3,1.2-2.1,2.7-2.4,4.6c0,0.2,0.2,0.4,0.4,0.3l13.8-2.6
			c0.2,0,0.3-0.3,0.2-0.5C89.2,30.1,86.9,28.8,83.8,28.8z"/>
		<path class="st0" d="M6.6,48.4v2.4c0,0.2-0.1,0.3-0.3,0.3H0.3C0.1,51.2,0,51,0,50.8V5.4c0-0.2,0.1-0.3,0.3-0.3h5.9
			c0.2,0,0.3,0.1,0.3,0.3v19.9c0.2-0.2,0.5-0.5,0.9-0.8c0.4-0.3,1.3-0.7,2.7-1.2c1.4-0.5,2.9-0.8,4.5-0.8c3.9,0,7.1,1.3,9.7,4
			c2.6,2.7,3.9,6.1,3.9,10.3s-1.3,7.6-3.9,10.3c-2.6,2.7-5.9,4-9.7,4c-1.6,0-3.1-0.2-4.4-0.7S8,49.6,7.4,49.1L6.6,48.4z M8.5,31
			c-1.5,1.5-2.2,3.4-2.2,5.9s0.7,4.5,2.2,5.9s3.3,2.2,5.6,2.2s4.1-0.7,5.6-2.2s2.2-3.4,2.2-5.9s-0.7-4.5-2.2-5.9
			c-1.5-1.5-3.3-2.2-5.6-2.2C11.8,28.8,10,29.5,8.5,31z"/>
		<path class="st0" d="M32.1,50.4v-45c0-0.2,0.1-0.3,0.3-0.3h5.9c0.2,0,0.3,0.1,0.3,0.3v45c0,0.2-0.1,0.3-0.3,0.3h-5.9
			C32.3,50.8,32.1,50.6,32.1,50.4z"/>
		<g>
			<path class="st0" d="M101.8,0.3v6.9c0,0.2,0.1,0.4,0.3,0.5l9.3,6.3c0.2,0.1,0.5,0.1,0.7,0l5.1-3.4c0.2-0.1,0.2-0.4,0-0.5
				l-14.9-10C102-0.1,101.8,0.1,101.8,0.3z"/>
			<path class="st0" d="M102.4,51.2l34.9,0c0.4,0,0.6-0.3,0.6-0.6V24.3c0-0.1-0.1-0.2-0.1-0.3l-9.6-6.4c-0.2-0.1-0.5-0.1-0.7,0
				l-5.1,3.4c-0.2,0.1-0.2,0.4,0,0.5l8.8,5.9c0.1,0.1,0.1,0.2,0.1,0.3v16.6c0,0.3-0.3,0.6-0.6,0.6h-7c-0.3,0-0.6-0.3-0.6-0.6V29.8
				l-3.3-2.2l-3.2,2.2v14.6c0,0.3-0.3,0.6-0.6,0.6h-7c-0.3,0-0.6-0.3-0.6-0.6V27.6c0-0.1,0.1-0.2,0.1-0.3l29.2-19.7
				c0.2-0.1,0.3-0.3,0.3-0.5V0.3c0-0.2-0.3-0.4-0.5-0.3l-35.5,23.9c-0.1,0.1-0.1,0.2-0.1,0.3v26.3C101.8,50.9,102,51.2,102.4,51.2z"
				/>
		</g>
	</g>
</g>
</svg>
